<?xml version="1.0" encoding="UTF-8"?>
<svg id="Layer_1" xmlns="http://www.w3.org/2000/svg" xmlns:xlink="http://www.w3.org/1999/xlink" version="1.1" viewBox="0 0 4811.2 1500">
  <!-- Generator: Adobe Illustrator 30.0.0, SVG Export Plug-In . SVG Version: 2.1.1 Build 123)  -->
  <defs>
    <style>
      .st0 {
        fill: url(#linear-gradient);
      }

      .st1 {
        fill: #fff;
      }

      .st2 {
        fill: #b4e100;
      }
    </style>
    <linearGradient id="linear-gradient" x1="899.74" y1="684.99" x2="1042.16" y2="529.91" gradientUnits="userSpaceOnUse">
      <stop offset="0" stop-color="#b4e100"/>
      <stop offset="1" stop-color="#e8fb9f"/>
    </linearGradient>
  </defs>
  <path class="st2" d="M1261.23,442.76c-61.61-50.06-123.23-100.12-184.84-150.18-10.66,56.38-54.52,250.22-226.16,359.68-41.69,26.59-83.22,43.28-120.42,53.9-.85-183.14-86.26-330.82-207.38-368.59-12.42-3.87-104.09-30.88-184.98,21.09-79.9,51.34-104.08,150.68-95.16,225.04,11.53,96.12,78.65,152.97,102.77,173.4,60.22,51,126.54,68,171.39,73.55-26.5,134.61-187.93,358.41-187.93,358.41h202.58c82.42-89.74,143.05-250.62,164.66-313.47,30.66,162.77,147.84,324.8,147.84,324.8h236.98l-.27-.32h13.46c-152.37-171.64-206.5-327.35-223.78-392.65,44.54-17.1,92.84-40.73,141.7-73.53,149.58-100.41,221.1-230.8,249.54-291.12ZM420.1,631.5c-34.79-42.33-39.39-96.06-10.26-120,29.13-23.94,80.94-9.03,115.74,33.3,34.79,42.33,39.39,96.06,10.26,120s-80.94,9.03-115.74-33.3Z"/>
  <path class="st0" d="M1261.23,442.76l-184.84-150.18c-10.66,56.38-54.52,250.22-226.16,359.68-5.39,3.44-10.77,6.7-16.15,9.82l99.28,117.42c25.61-12.8,51.89-27.86,78.34-45.61,149.58-100.41,221.1-230.8,249.54-291.12Z"/>
  <g id="layer1">
    <g id="g29378">
      <circle id="path9471-1-8" class="st1" cx="1176.87" cy="361.75" r="122.5" transform="translate(-53.5 316.28) rotate(-14.97)"/>
      <g>
        <path id="path9456-0-0" class="st2" d="M1217,246c-17.33-6.06-35.39-7.88-52.63-5.66-4.14,7.55-10.58,19.55-20.63,33.29-14.62,20.39-36.7,47.17-41.65,63.45-7.25,20.72-8.43,39.06-1.31,55.06,8.62,20.27,28.43,38.46,49.09,45.69,21.33,7.46,47.49,5.37,67.53-4.87,15.54-8.07,25.38-23.38,33.3-43.86,5.61-16.04,5.71-50.52,7-75.58.71-17.01,3.16-30.4,4.63-38.89-12.09-12.48-27.35-22.32-45.34-28.62h0Z"/>
        <path id="path9458-1-3" class="st2" d="M1272.23,284.84c25.64,31.48,34.77,75.94,20.27,117.38-22.22,63.5-92.44,97.44-156.42,75.05-63.31-22.16-97.05-92.48-74.83-155.98,14.5-41.44,48.69-70.74,88.36-79.36-3.9,6.89-9.18,15.54-15.12,23.97-14.38,19.72-36.9,45.6-43.49,66.56-7.28,22.96-9.4,43.97-.79,64.24,10.35,23.88,32.16,42.76,56.15,51.16,24.66,8.63,53.49,7.47,76.47-4.75,19.37-10.47,30.82-28.23,39.44-50.72,7.25-20.72,6.45-54.76,7.5-79.15-.06-10.52,1.22-20.58,2.46-28.4Z"/>
      </g>
    </g>
  </g>
  <g>
    <path class="st2" d="M1247.5,750.61v441.07h-158.22v-441.07h158.22Z"/>
    <path class="st2" d="M1616.13,847.9c-66.27,0-114.32,31.48-114.32,87.81s48.05,88.64,114.32,88.64,95.26-19.05,108.52-32.31v192.19c-24.85,10.77-112.66,17.4-139.17,17.4-158.22,0-285.79-97.75-285.79-266.74s127.57-265.08,285.79-265.08c26.51,0,114.32,8.28,139.17,19.05v189.7c-13.25-12.43-43.08-30.65-108.52-30.65Z"/>
    <path class="st2" d="M1953.28,686.37v225.32c16.19-29.03,34.09-67.22,47.86-113.85,12.49-42.3,18.3-80.44,20.9-111.47,63.51,0,127.02,0,190.53,0-21.5,36.47-49.72,78.34-86.42,121.76-36.26,42.89-72.39,77.35-104.44,104.44,31.62,18.13,77.24,49.47,119.47,100.48,57.01,68.86,79.39,139.21,88.78,178.63h-183.07c-4.56-33.82-15.23-81.21-41.79-131.95-13.94-26.64-29.32-48.55-43.53-66.03-2.76,3.31-5.52,6.63-8.28,9.94v188.04h-158.22v-505.31h158.22Z"/>
    <path class="st2" d="M2252.32,1166v-163.19c59.64,23.2,101.06,45.56,198.81,45.56,39.76,0,65.44-14.91,65.44-40.59,0-53.84-264.25-9.11-264.25-178.1,0-61.3,26.51-149.11,218.69-149.11,101.06,0,173.13,14.91,209.58,29.82v164.02c-59.64-24.02-129.23-40.59-198.81-40.59-45.56,0-65.44,19.05-65.44,40.59,0,68.76,264.25,8.28,264.25,178.1,0,60.47-26.51,148.28-218.69,148.28-101.06,0-173.13-14.91-209.58-34.79Z"/>
    <path class="st2" d="M3130.41,686.37v155.74h-226.98v30.65h218.69v129.23h-218.69v33.96h235.26v155.74h-393.48v-505.31h385.2Z"/>
    <path class="st2" d="M3468.39,686.37c82.84,0,135.03,58.81,135.03,168.16s-51.36,152.42-132.54,161.54c20.38,15.68,46.54,39.21,71.14,72.54,28.76,38.98,44.41,76.5,53.12,103.07h-164.85c-.89-21.14-4.81-53.66-20.01-90.02-16.98-40.63-40.59-68.27-56.2-83.94-8.28,0-16.57,0-24.85,0v173.96h-131.71v-505.31h270.88ZM3415.37,910.86c59.64,0,61.3-20.71,61.3-41.42,0-23.2-15.74-31.48-63.79-31.48h-83.67v72.9h86.15Z"/>
    <path class="st2" d="M3788.14,686.37l77.04,346.26,77.04-346.26h168.99l-135.86,505.31h-220.35l-135.86-505.31h168.99Z"/>
    <path class="st2" d="M4534.51,686.37v155.74h-226.98v30.65h218.69v129.23h-218.69v33.96h235.26v155.74h-393.48v-505.31h385.2Z"/>
    <path class="st2" d="M1089.28,750.61h158.22c.53-54.67,1.06-109.35,1.59-164.02-12.65,23.92-31.54,53.88-59.34,84.26-35.95,39.29-73.15,64.37-100.47,79.76Z"/>
  </g>
</svg>